HIERARCHY
ROOT pelvis
{
  OFFSET 0 100 0
  CHANNELS 6 Xposition Yposition Zposition Zrotation Xrotation Yrotation
  JOINT pelvis_right_femur
  {
    OFFSET -10.78128 -3.44521 -0.5502486
    CHANNELS 3 Zrotation Xrotation Yrotation
    JOINT right_femur_tibia
    {
      OFFSET -0.8047443 -44.0398 -0.1307829
      CHANNELS 3 Zrotation Xrotation Yrotation
      JOINT right_tibia_foot
      {
        OFFSET 3.006224 -47.83518 -5
        CHANNELS 3 Zrotation Xrotation Yrotation
        End Site
        {
          OFFSET 0 -5 15
        }
      }
    }
  }
  JOINT pelvis_left_femur
  {
    OFFSET 10.78128 -3.44521 -0.5502486
    CHANNELS 3 Zrotation Xrotation Yrotation
    JOINT left_femur_tibia
    {
      OFFSET 0.8047443 -44.0398 -0.1307829
      CHANNELS 3 Zrotation Xrotation Yrotation
      JOINT left_tibia_foot
      {
        OFFSET -4.370144 -48.10324 -4.275266
        CHANNELS 3 Zrotation Xrotation Yrotation
        End Site
        {
          OFFSET 0 -5 15
        }
      }
    }
  }
  JOINT pelvis_spine1
  {
    OFFSET 0 6.468898 -3.129235
    CHANNELS 3 Zrotation Xrotation Yrotation
    JOINT spine1
    {
      OFFSET 0 23.15396 4.99043
      CHANNELS 3 Zrotation Xrotation Yrotation
      JOINT spine2
      {
        OFFSET 0 20.79997 -5.064912
        CHANNELS 3 Zrotation Xrotation Yrotation
        JOINT neck
        {
          OFFSET 0 14.38658 9.616178
          CHANNELS 3 Zrotation Xrotation Yrotation
          End Site
          {
            OFFSET 0 20 0
          }
        }
      }
      JOINT right_manubrium
      {
        OFFSET -5.722621 16.35077 3.967754
        CHANNELS 3 Zrotation Xrotation Yrotation
        JOINT right_clavicle
        {
          OFFSET -13.16364 1.694482 -4.693211
          CHANNELS 3 Zrotation Xrotation Yrotation
          JOINT right_humerus
          {
            OFFSET -28.5034 -0.3100689 -2.792744
            CHANNELS 3 Zrotation Xrotation Yrotation
            JOINT right_radius
            {
              OFFSET -25.15693 0.02248979 -1.271978
              CHANNELS 3 Zrotation Xrotation Yrotation
              End Site
              {
                OFFSET -15 0 0
              }
            }
          }
        }
      }
      JOINT left_manubrium
      {
        OFFSET 5.722621 16.35077 3.967754
        CHANNELS 3 Zrotation Xrotation Yrotation
        JOINT left_clavicle
        {
          OFFSET 13.16364 1.694482 -4.693211
          CHANNELS 3 Zrotation Xrotation Yrotation
          JOINT left_humerus
          {
            OFFSET 29.39168 -1.063119 -2.237045
            CHANNELS 3 Zrotation Xrotation Yrotation
            JOINT left_radius
            {
              OFFSET 24.59957 -0.9528479 0.9047498
              CHANNELS 3 Zrotation Xrotation Yrotation
              End Site
              {
                OFFSET 15 -0 -0
              }
            }
          }
        }
      }
    }
  }
}
MOTION
Frames: 7
Frame Time: 0.0416666666667
872.5236 107.405 3313.698 6.18161 -10.07172 30.71368 1.361674 -8.21636 -7.404197 -0 31.14774 -0 -12.31079 16.46665 -0.4715403 -4.474928 9.599277 -5.229071 -0 12.94598 -0 4.105083 -14.04856 15.7153 -0.2857189 -2.829649 2.325399 -0.9438474 15.27402 -6.11458 2.019288 23.77519 4.723307 1.21473 -19.73267 7.382766 -7.458749 -22.59813 10.74511 99.92017 8.824157 -17.74702 -0 0 7.78512 -29.44788 9.627367 14.25387 5.352415 -26.53472 -9.529796 -85.95915 11.41725 15.54061 0 0 -18.5322 15.41172 16.06861 -5.113201
876.2956 107.6982 3319.721 5.661246 -9.766365 31.18872 1.982504 -12.21535 -7.965228 -0 24.68237 -0 -13.61315 16.27545 -0.2061711 -4.257079 12.23539 -4.98839 -0 15.69132 -0 4.458624 -14.20678 15.04314 0.1697675 -3.053611 2.049053 -0.4530288 15.61762 -6.765147 1.945713 23.58896 4.698833 1.197537 -20.37303 7.366094 -7.818429 -22.50396 10.90854 100.9111 8.425591 -19.51504 -0 0 6.176891 -28.82848 10.03353 13.61591 5.572466 -27.94121 -9.831458 -85.3488 10.42226 14.35616 0 0 -21.13794 17.25721 16.42776 -7.291034
879.9972 107.8707 3325.865 5.259132 -9.661389 31.52585 2.625739 -15.23571 -8.476801 -0 18.60156 -0 -14.80532 16.20224 0.0279011 -3.964909 14.1606 -4.493033 -0 19.22827 -0 4.56955 -13.99975 14.30575 0.6543374 -3.228443 1.862368 -0.06023458 15.9958 -7.290725 1.902643 23.44692 4.609806 1.155527 -20.82824 7.290343 -8.249603 -22.43555 11.06602 101.881 7.810971 -20.97813 -0 0 4.708447 -28.49448 10.42887 13.12902 5.711431 -29.21165 -10.15761 -84.82224 9.353022 13.33067 0 0 -23.40306 18.90372 16.61754 -9.246237
883.68 108.0234 3332.19 5.058706 -9.772383 31.74243 3.246433 -16.81225 -8.833929 -0 13.72741 -0 -15.66206 16.23851 0.1460795 -3.630586 15.0725 -3.758787 -0 23.51814 -0 4.311985 -13.37176 13.55199 1.109668 -3.302681 1.80014 0.1785296 16.34511 -7.611296 1.902471 23.37335 4.461638 1.097752 -20.99343 7.153531 -8.658638 -22.33703 11.20235 102.6654 7.106861 -21.95345 -0 0 3.541243 -28.48529 10.77656 12.84559 5.737232 -30.14099 -10.45603 -84.42002 8.397063 12.5377 0 0 -25.0288 20.02065 16.59268 -10.59731
887.399 108.263 3338.727 5.06298 -10.0473 31.85192 3.840629 -16.71487 -8.948114 -0 10.38199 -0 -16.0485 16.20466 0.1074798 -3.238386 14.73931 -2.857997 -0 28.27946 -0 3.673577 -12.32868 12.87223 1.492502 -3.252247 1.89395 0.2489675 16.60786 -7.688891 1.943651 23.36335 4.266293 1.034055 -20.85219 6.962375 -8.954242 -22.20865 11.31104 103.1056 6.502067 -22.3411 -0 0 2.852035 -28.74341 11.05953 12.78004 5.649024 -30.59568 -10.66002 -84.18774 7.717258 12.08212 0 0 -25.84131 20.40875 16.37365 -11.11337
891.1868 108.6504 3345.458 5.176146 -10.36525 31.85002 4.428663 -15.09265 -8.788201 -0 8.240209 -0 -15.98992 15.78555 -0.05232008 -2.734392 13.11671 -1.926371 -0 32.89354 -0 2.805653 -10.98461 12.38833 1.784658 -3.099465 2.156892 0.1925086 16.75059 -7.551086 2.006599 23.37872 4.044232 0.9717079 -20.50816 6.736441 -9.080283 -22.12814 11.39453 103.0968 6.190574 -22.16162 -0 0 2.78727 -29.11223 11.28428 12.8985 5.484742 -30.57311 -10.70811 -84.17289 7.394875 12.08564 0 0 -25.86409 20.10868 16.03834 -10.83554
895.0422 109.1668 3352.318 5.265295 -10.59341 31.71946 5.012112 -12.36478 -8.398981 -0 6.707226 -0 -15.6384 14.71791 -0.2319998 -2.081362 10.37173 -1.114993 -0 36.52385 -0 1.959717 -9.545139 12.21082 1.983911 -2.901543 2.573533 0.07584891 16.77144 -7.26731 2.063292 23.37183 3.821534 0.9131035 -20.12808 6.50509 -9.034451 -22.21441 11.45681 102.6189 6.286673 -21.50914 -0 0 3.420133 -29.42157 11.46374 13.14748 5.299943 -30.17526 -10.57124 -84.41406 7.415835 12.64638 0 0 -25.25107 19.34605 15.69065 -10.01508
